<?xml version="1.0" encoding="UTF-8"?>
<svg id="Layer_3" data-name="Layer 3" xmlns="http://www.w3.org/2000/svg" viewBox="0 0 178.17 244.45">
  <defs>
    <style>
      .cls-1 {
        fill: #fff;
        stroke: #000;
        stroke-width: 3px;
      }

      .cls-1, .cls-2 {
        stroke-miterlimit: 10;
      }

      .cls-2 {
        fill: #231f20;
        stroke: #fff;
      }
    </style>
  </defs>
  <g>
    <path class="cls-1" d="M167.38,1.5c5.5,0,9.67,4.49,9.26,9.97l-14.83,201.12c-.4,5.49-4.54,12.38-9.18,15.33,0,0-23.71,15.03-63.38,15.03s-63.38-15.03-63.38-15.03c-4.65-2.94-8.78-9.84-9.2-15.32L1.53,11.47C1.12,5.99,5.28,1.5,10.78,1.5h156.6,0Z"/>
    <path class="cls-1" d="M167.38,1.5c5.5,0,9.67,4.49,9.26,9.97l-14.83,201.12c-.4,5.49-4.54,12.38-9.18,15.33,0,0-23.71,15.03-63.38,15.03s-63.38-15.03-63.38-15.03c-4.65-2.94-8.78-9.84-9.2-15.32L1.53,11.47C1.12,5.99,5.28,1.5,10.78,1.5h156.6,0Z"/>
  </g>
  <path class="cls-2" d="M91.11,90.38c2.24,0,4.2-.87,5.89-2.62s2.53-3.78,2.53-6.1c0-.25-.02-.62-.06-1.09-.3.04-.52.07-.66.1-2.07.29-3.88,1.31-5.45,3.04s-2.35,3.58-2.35,5.55c0,.23.03.6.1,1.13h0ZM99.14,121.12c1.6,0,3.36-1.09,5.29-3.28,1.93-2.18,3.41-4.75,4.43-7.7-3.8-1.96-5.69-4.76-5.69-8.42,0-3.06,1.54-5.67,4.61-7.84-2.13-2.67-4.95-4-8.45-4-1.48,0-2.82.22-4.04.66l-.76.28-1.03.4c-.67.25-1.28.38-1.83.38-.43,0-.99-.15-1.69-.44l-.78-.32-.74-.3c-1.09-.46-2.25-.68-3.5-.68-3.34,0-6.02,1.13-8.05,3.38-2.02,2.25-3.04,5.22-3.04,8.91,0,5.19,1.62,9.98,4.87,14.37,2.25,3.07,4.31,4.6,6.18,4.6.79,0,1.58-.15,2.35-.46l.99-.4.78-.28c1.1-.39,2.11-.58,3.04-.58.98,0,2.11.25,3.38.74l.62.24c1.3.5,2.33.74,3.08.74h-.02Z"/>
</svg>